<svg xmlns="http://www.w3.org/2000/svg" viewBox="0 0 960 700" width="960" height="700" font-family="-apple-system, 'PingFang SC', 'Hiragino Sans GB', 'Microsoft YaHei', 'Noto Sans CJK SC', sans-serif" role="img" aria-label="五个任务在 1/8/32/128 个 Agent 下的最终通过率">
<title>五个任务在 1/8/32/128 个 Agent 下的最终通过率</title>
<defs>
<marker id="ar" viewBox="0 0 10 10" refX="9" refY="5" markerWidth="7" markerHeight="7" orient="auto-start-reverse"><path d="M0,0 L10,5 L0,10 z" fill="#1f2937"/></marker>
<marker id="arG" viewBox="0 0 10 10" refX="9" refY="5" markerWidth="7" markerHeight="7" orient="auto-start-reverse"><path d="M0,0 L10,5 L0,10 z" fill="#059669"/></marker>
<marker id="arO" viewBox="0 0 10 10" refX="9" refY="5" markerWidth="7" markerHeight="7" orient="auto-start-reverse"><path d="M0,0 L10,5 L0,10 z" fill="#ea580c"/></marker>
<marker id="arB" viewBox="0 0 10 10" refX="9" refY="5" markerWidth="7" markerHeight="7" orient="auto-start-reverse"><path d="M0,0 L10,5 L0,10 z" fill="#2563eb"/></marker>
</defs>
<rect width="960" height="700" fill="#ffffff"/>
<text x="480.0" y="30" font-size="17" fill="#1f2937" text-anchor="middle" font-weight="bold" >ProgramBench 五个最难任务：最终测试通过率（%）随 Agent 数变化</text>
<text x="480.0" y="52" font-size="12" fill="#6b7280" text-anchor="middle" font-weight="normal" >横轴按 log₂ 刻度；数据取自论文图 5</text>
<text x="60" y="78" font-size="15" fill="#1f2937" text-anchor="start" font-weight="bold" >五任务平均</text>
<line x1="60" y1="280" x2="310" y2="280" stroke="#9ca3af" stroke-width="1.2"/>
<line x1="60" y1="90" x2="60" y2="280" stroke="#e5e7eb" stroke-width="1"/>
<line x1="60.0" y1="280" x2="60.0" y2="284" stroke="#9ca3af" stroke-width="1"/>
<text x="60.0" y="298" font-size="11" fill="#6b7280" text-anchor="middle" font-weight="normal" >1</text>
<line x1="167.14285714285714" y1="280" x2="167.14285714285714" y2="284" stroke="#9ca3af" stroke-width="1"/>
<text x="167.14285714285714" y="298" font-size="11" fill="#6b7280" text-anchor="middle" font-weight="normal" >8</text>
<line x1="238.57142857142858" y1="280" x2="238.57142857142858" y2="284" stroke="#9ca3af" stroke-width="1"/>
<text x="238.57142857142858" y="298" font-size="11" fill="#6b7280" text-anchor="middle" font-weight="normal" >32</text>
<line x1="310.0" y1="280" x2="310.0" y2="284" stroke="#9ca3af" stroke-width="1"/>
<text x="310.0" y="298" font-size="11" fill="#6b7280" text-anchor="middle" font-weight="normal" >128</text>
<line x1="60" y1="90.0" x2="310" y2="90.0" stroke="#f3f4f6" stroke-width="1"/>
<line x1="60" y1="185.0" x2="310" y2="185.0" stroke="#f3f4f6" stroke-width="1"/>
<line x1="60" y1="280.0" x2="310" y2="280.0" stroke="#f3f4f6" stroke-width="1"/>
<polyline points="60.0,245.9 167.1,228.3 238.6,153.2 310.0,124.1" fill="none" stroke="#ea580c" stroke-width="2.4"/>
<circle cx="60.0" cy="245.9" r="4.5" fill="#ea580c" stroke="#fff" stroke-width="1.5"/>
<text x="60.0" y="235.9" font-size="11" fill="#1f2937" text-anchor="middle" font-weight="bold" >19.31</text>
<circle cx="167.1" cy="228.3" r="4.5" fill="#ea580c" stroke="#fff" stroke-width="1.5"/>
<text x="167.1" y="218.3" font-size="11" fill="#1f2937" text-anchor="middle" font-weight="bold" >20.68</text>
<circle cx="238.6" cy="153.2" r="4.5" fill="#ea580c" stroke="#fff" stroke-width="1.5"/>
<text x="238.6" y="143.2" font-size="11" fill="#1f2937" text-anchor="middle" font-weight="bold" >26.52</text>
<circle cx="310.0" cy="124.1" r="4.5" fill="#ea580c" stroke="#fff" stroke-width="1.5"/>
<text x="310.0" y="114.1" font-size="11" fill="#1f2937" text-anchor="middle" font-weight="bold" >28.78</text>
<line x1="60" y1="245.89743589743588" x2="310" y2="245.89743589743588" stroke="#9ca3af" stroke-width="1" stroke-dasharray="4 4"/>
<text x="370" y="78" font-size="15" fill="#1f2937" text-anchor="start" font-weight="bold" >FFmpeg</text>
<line x1="370" y1="280" x2="620" y2="280" stroke="#9ca3af" stroke-width="1.2"/>
<line x1="370" y1="90" x2="370" y2="280" stroke="#e5e7eb" stroke-width="1"/>
<line x1="370.0" y1="280" x2="370.0" y2="284" stroke="#9ca3af" stroke-width="1"/>
<text x="370.0" y="298" font-size="11" fill="#6b7280" text-anchor="middle" font-weight="normal" >1</text>
<line x1="477.1428571428571" y1="280" x2="477.1428571428571" y2="284" stroke="#9ca3af" stroke-width="1"/>
<text x="477.1428571428571" y="298" font-size="11" fill="#6b7280" text-anchor="middle" font-weight="normal" >8</text>
<line x1="548.5714285714286" y1="280" x2="548.5714285714286" y2="284" stroke="#9ca3af" stroke-width="1"/>
<text x="548.5714285714286" y="298" font-size="11" fill="#6b7280" text-anchor="middle" font-weight="normal" >32</text>
<line x1="620.0" y1="280" x2="620.0" y2="284" stroke="#9ca3af" stroke-width="1"/>
<text x="620.0" y="298" font-size="11" fill="#6b7280" text-anchor="middle" font-weight="normal" >128</text>
<line x1="370" y1="90.0" x2="620" y2="90.0" stroke="#f3f4f6" stroke-width="1"/>
<line x1="370" y1="185.0" x2="620" y2="185.0" stroke="#f3f4f6" stroke-width="1"/>
<line x1="370" y1="280.0" x2="620" y2="280.0" stroke="#f3f4f6" stroke-width="1"/>
<polyline points="370.0,245.9 477.1,146.9 548.6,124.1 620.0,130.1" fill="none" stroke="#059669" stroke-width="2.4"/>
<circle cx="370.0" cy="245.9" r="4.5" fill="#059669" stroke="#fff" stroke-width="1.5"/>
<text x="370.0" y="235.9" font-size="11" fill="#1f2937" text-anchor="middle" font-weight="bold" >6.54</text>
<circle cx="477.1" cy="146.9" r="4.5" fill="#059669" stroke="#fff" stroke-width="1.5"/>
<text x="477.1" y="136.9" font-size="11" fill="#1f2937" text-anchor="middle" font-weight="bold" >11.97</text>
<circle cx="548.6" cy="124.1" r="4.5" fill="#059669" stroke="#fff" stroke-width="1.5"/>
<text x="548.6" y="114.1" font-size="11" fill="#1f2937" text-anchor="middle" font-weight="bold" >13.22</text>
<circle cx="620.0" cy="130.1" r="4.5" fill="#059669" stroke="#fff" stroke-width="1.5"/>
<text x="620.0" y="120.1" font-size="11" fill="#1f2937" text-anchor="middle" font-weight="bold" >12.89</text>
<line x1="370" y1="245.8974358974359" x2="620" y2="245.8974358974359" stroke="#9ca3af" stroke-width="1" stroke-dasharray="4 4"/>
<text x="680" y="78" font-size="15" fill="#1f2937" text-anchor="start" font-weight="bold" >gromacs</text>
<line x1="680" y1="280" x2="930" y2="280" stroke="#9ca3af" stroke-width="1.2"/>
<line x1="680" y1="90" x2="680" y2="280" stroke="#e5e7eb" stroke-width="1"/>
<line x1="680.0" y1="280" x2="680.0" y2="284" stroke="#9ca3af" stroke-width="1"/>
<text x="680.0" y="298" font-size="11" fill="#6b7280" text-anchor="middle" font-weight="normal" >1</text>
<line x1="787.1428571428571" y1="280" x2="787.1428571428571" y2="284" stroke="#9ca3af" stroke-width="1"/>
<text x="787.1428571428571" y="298" font-size="11" fill="#6b7280" text-anchor="middle" font-weight="normal" >8</text>
<line x1="858.5714285714286" y1="280" x2="858.5714285714286" y2="284" stroke="#9ca3af" stroke-width="1"/>
<text x="858.5714285714286" y="298" font-size="11" fill="#6b7280" text-anchor="middle" font-weight="normal" >32</text>
<line x1="930.0" y1="280" x2="930.0" y2="284" stroke="#9ca3af" stroke-width="1"/>
<text x="930.0" y="298" font-size="11" fill="#6b7280" text-anchor="middle" font-weight="normal" >128</text>
<line x1="680" y1="90.0" x2="930" y2="90.0" stroke="#f3f4f6" stroke-width="1"/>
<line x1="680" y1="185.0" x2="930" y2="185.0" stroke="#f3f4f6" stroke-width="1"/>
<line x1="680" y1="280.0" x2="930" y2="280.0" stroke="#f3f4f6" stroke-width="1"/>
<polyline points="680.0,231.7 787.1,245.9 858.6,245.9 930.0,124.1" fill="none" stroke="#059669" stroke-width="2.4"/>
<circle cx="680.0" cy="231.7" r="4.5" fill="#059669" stroke="#fff" stroke-width="1.5"/>
<text x="680.0" y="221.7" font-size="11" fill="#1f2937" text-anchor="middle" font-weight="bold" >19.69</text>
<circle cx="787.1" cy="245.9" r="4.5" fill="#059669" stroke="#fff" stroke-width="1.5"/>
<text x="787.1" y="235.9" font-size="11" fill="#1f2937" text-anchor="middle" font-weight="bold" >19.37</text>
<circle cx="858.6" cy="245.9" r="4.5" fill="#059669" stroke="#fff" stroke-width="1.5"/>
<text x="858.6" y="235.9" font-size="11" fill="#1f2937" text-anchor="middle" font-weight="bold" >19.37</text>
<circle cx="930.0" cy="124.1" r="4.5" fill="#059669" stroke="#fff" stroke-width="1.5"/>
<text x="930.0" y="114.1" font-size="11" fill="#1f2937" text-anchor="middle" font-weight="bold" >22.12</text>
<line x1="680" y1="231.72494172494171" x2="930" y2="231.72494172494171" stroke="#9ca3af" stroke-width="1" stroke-dasharray="4 4"/>
<text x="60" y="388" font-size="15" fill="#1f2937" text-anchor="start" font-weight="bold" >pandoc</text>
<line x1="60" y1="590" x2="310" y2="590" stroke="#9ca3af" stroke-width="1.2"/>
<line x1="60" y1="400" x2="60" y2="590" stroke="#e5e7eb" stroke-width="1"/>
<line x1="60.0" y1="590" x2="60.0" y2="594" stroke="#9ca3af" stroke-width="1"/>
<text x="60.0" y="608" font-size="11" fill="#6b7280" text-anchor="middle" font-weight="normal" >1</text>
<line x1="167.14285714285714" y1="590" x2="167.14285714285714" y2="594" stroke="#9ca3af" stroke-width="1"/>
<text x="167.14285714285714" y="608" font-size="11" fill="#6b7280" text-anchor="middle" font-weight="normal" >8</text>
<line x1="238.57142857142858" y1="590" x2="238.57142857142858" y2="594" stroke="#9ca3af" stroke-width="1"/>
<text x="238.57142857142858" y="608" font-size="11" fill="#6b7280" text-anchor="middle" font-weight="normal" >32</text>
<line x1="310.0" y1="590" x2="310.0" y2="594" stroke="#9ca3af" stroke-width="1"/>
<text x="310.0" y="608" font-size="11" fill="#6b7280" text-anchor="middle" font-weight="normal" >128</text>
<line x1="60" y1="400.0" x2="310" y2="400.0" stroke="#f3f4f6" stroke-width="1"/>
<line x1="60" y1="495.0" x2="310" y2="495.0" stroke="#f3f4f6" stroke-width="1"/>
<line x1="60" y1="590.0" x2="310" y2="590.0" stroke="#f3f4f6" stroke-width="1"/>
<polyline points="60.0,555.9 167.1,499.8 238.6,490.0 310.0,434.1" fill="none" stroke="#059669" stroke-width="2.4"/>
<circle cx="60.0" cy="555.9" r="4.5" fill="#059669" stroke="#fff" stroke-width="1.5"/>
<text x="60.0" y="545.9" font-size="11" fill="#1f2937" text-anchor="middle" font-weight="bold" >33.89</text>
<circle cx="167.1" cy="499.8" r="4.5" fill="#059669" stroke="#fff" stroke-width="1.5"/>
<text x="167.1" y="489.8" font-size="11" fill="#1f2937" text-anchor="middle" font-weight="bold" >41.75</text>
<circle cx="238.6" cy="490.0" r="4.5" fill="#059669" stroke="#fff" stroke-width="1.5"/>
<text x="238.6" y="480.0" font-size="11" fill="#1f2937" text-anchor="middle" font-weight="bold" >43.11</text>
<circle cx="310.0" cy="434.1" r="4.5" fill="#059669" stroke="#fff" stroke-width="1.5"/>
<text x="310.0" y="424.1" font-size="11" fill="#1f2937" text-anchor="middle" font-weight="bold" >50.94</text>
<line x1="60" y1="555.8974358974359" x2="310" y2="555.8974358974359" stroke="#9ca3af" stroke-width="1" stroke-dasharray="4 4"/>
<text x="370" y="388" font-size="15" fill="#1f2937" text-anchor="start" font-weight="bold" >PHP-src</text>
<line x1="370" y1="590" x2="620" y2="590" stroke="#9ca3af" stroke-width="1.2"/>
<line x1="370" y1="400" x2="370" y2="590" stroke="#e5e7eb" stroke-width="1"/>
<line x1="370.0" y1="590" x2="370.0" y2="594" stroke="#9ca3af" stroke-width="1"/>
<text x="370.0" y="608" font-size="11" fill="#6b7280" text-anchor="middle" font-weight="normal" >1</text>
<line x1="477.1428571428571" y1="590" x2="477.1428571428571" y2="594" stroke="#9ca3af" stroke-width="1"/>
<text x="477.1428571428571" y="608" font-size="11" fill="#6b7280" text-anchor="middle" font-weight="normal" >8</text>
<line x1="548.5714285714286" y1="590" x2="548.5714285714286" y2="594" stroke="#9ca3af" stroke-width="1"/>
<text x="548.5714285714286" y="608" font-size="11" fill="#6b7280" text-anchor="middle" font-weight="normal" >32</text>
<line x1="620.0" y1="590" x2="620.0" y2="594" stroke="#9ca3af" stroke-width="1"/>
<text x="620.0" y="608" font-size="11" fill="#6b7280" text-anchor="middle" font-weight="normal" >128</text>
<line x1="370" y1="400.0" x2="620" y2="400.0" stroke="#f3f4f6" stroke-width="1"/>
<line x1="370" y1="495.0" x2="620" y2="495.0" stroke="#f3f4f6" stroke-width="1"/>
<line x1="370" y1="590.0" x2="620" y2="590.0" stroke="#f3f4f6" stroke-width="1"/>
<polyline points="370.0,555.9 477.1,468.8 548.6,442.6 620.0,434.1" fill="none" stroke="#059669" stroke-width="2.4"/>
<circle cx="370.0" cy="555.9" r="4.5" fill="#059669" stroke="#fff" stroke-width="1.5"/>
<text x="370.0" y="545.9" font-size="11" fill="#1f2937" text-anchor="middle" font-weight="bold" >10.63</text>
<circle cx="477.1" cy="468.8" r="4.5" fill="#059669" stroke="#fff" stroke-width="1.5"/>
<text x="477.1" y="458.8" font-size="11" fill="#1f2937" text-anchor="middle" font-weight="bold" >11.86</text>
<circle cx="548.6" cy="442.6" r="4.5" fill="#059669" stroke="#fff" stroke-width="1.5"/>
<text x="548.6" y="432.6" font-size="11" fill="#1f2937" text-anchor="middle" font-weight="bold" >12.23</text>
<circle cx="620.0" cy="434.1" r="4.5" fill="#059669" stroke="#fff" stroke-width="1.5"/>
<text x="620.0" y="424.1" font-size="11" fill="#1f2937" text-anchor="middle" font-weight="bold" >12.35</text>
<line x1="370" y1="555.8974358974359" x2="620" y2="555.8974358974359" stroke="#9ca3af" stroke-width="1" stroke-dasharray="4 4"/>
<text x="680" y="388" font-size="15" fill="#1f2937" text-anchor="start" font-weight="bold" >ctags</text>
<line x1="680" y1="590" x2="930" y2="590" stroke="#9ca3af" stroke-width="1.2"/>
<line x1="680" y1="400" x2="680" y2="590" stroke="#e5e7eb" stroke-width="1"/>
<line x1="680.0" y1="590" x2="680.0" y2="594" stroke="#9ca3af" stroke-width="1"/>
<text x="680.0" y="608" font-size="11" fill="#6b7280" text-anchor="middle" font-weight="normal" >1</text>
<line x1="787.1428571428571" y1="590" x2="787.1428571428571" y2="594" stroke="#9ca3af" stroke-width="1"/>
<text x="787.1428571428571" y="608" font-size="11" fill="#6b7280" text-anchor="middle" font-weight="normal" >8</text>
<line x1="858.5714285714286" y1="590" x2="858.5714285714286" y2="594" stroke="#9ca3af" stroke-width="1"/>
<text x="858.5714285714286" y="608" font-size="11" fill="#6b7280" text-anchor="middle" font-weight="normal" >32</text>
<line x1="930.0" y1="590" x2="930.0" y2="594" stroke="#9ca3af" stroke-width="1"/>
<text x="930.0" y="608" font-size="11" fill="#6b7280" text-anchor="middle" font-weight="normal" >128</text>
<line x1="680" y1="400.0" x2="930" y2="400.0" stroke="#f3f4f6" stroke-width="1"/>
<line x1="680" y1="495.0" x2="930" y2="495.0" stroke="#f3f4f6" stroke-width="1"/>
<line x1="680" y1="590.0" x2="930" y2="590.0" stroke="#f3f4f6" stroke-width="1"/>
<polyline points="680.0,522.9 787.1,555.9 858.6,438.3 930.0,434.1" fill="none" stroke="#059669" stroke-width="2.4"/>
<circle cx="680.0" cy="522.9" r="4.5" fill="#059669" stroke="#fff" stroke-width="1.5"/>
<text x="680.0" y="512.9" font-size="11" fill="#1f2937" text-anchor="middle" font-weight="bold" >25.82</text>
<circle cx="787.1" cy="555.9" r="4.5" fill="#059669" stroke="#fff" stroke-width="1.5"/>
<text x="787.1" y="545.9" font-size="11" fill="#1f2937" text-anchor="middle" font-weight="bold" >18.47</text>
<circle cx="858.6" cy="438.3" r="4.5" fill="#059669" stroke="#fff" stroke-width="1.5"/>
<text x="858.6" y="428.3" font-size="11" fill="#1f2937" text-anchor="middle" font-weight="bold" >44.69</text>
<circle cx="930.0" cy="434.1" r="4.5" fill="#059669" stroke="#fff" stroke-width="1.5"/>
<text x="930.0" y="424.1" font-size="11" fill="#1f2937" text-anchor="middle" font-weight="bold" >45.62</text>
<line x1="680" y1="522.9253435330784" x2="930" y2="522.9253435330784" stroke="#9ca3af" stroke-width="1" stroke-dasharray="4 4"/>
<text x="60" y="655" font-size="12" fill="#dc2626" text-anchor="start" font-weight="normal" >红字提示：ctags 在 8 个 Agent 时低于单 Agent（25.82→18.47）；gromacs 到 32 个仍持平；FFmpeg 128 个略低于 32 个。</text>
<text x="60" y="676" font-size="12" fill="#6b7280" text-anchor="start" font-weight="normal" >虚线为单 Agent 基线；各任务纵轴范围不同，不能跨图比较绝对高度。</text>
</svg>
